<svg fill="none" height="32" viewBox="0 0 32 32" width="32" xmlns="http://www.w3.org/2000/svg"><path d="m1.57708 6.99127 9.14312 9.03583-1.72622 1.7458c.01126-.0444.02327-.0887.03602-.1329.06-.2-.09-.4-.3-.4h-2.12c-.15 0-.28.11-.31.25-.34657 1.8215.03439 3.7079 1.06958 5.2405l-3.07455 3.0745c-.52042-.525-1.36675-.5234-1.89509.005-.53.52-.53 1.37 0 1.9l1.9 1.9c.52.52 1.37.52 1.9 0s.53-1.37 0-1.9l-.00494-.005 3.07689-3.0769c1.50821 1.0149 3.35721 1.4031 5.14811 1.0819.15-.03.26-.16.26-.31v-2.11c0-.21-.2-.35-.4-.3-.017.0045-.034.0089-.051.0132l1.774-1.7552 1.7684 1.7476c-.0439-.0111-.0877-.023-.1314-.0356-.2-.06-.4.09-.4.3v2.12c0 .15.11.28.25.31 1.8191.3461 3.703-.0334 5.2345-1.0655l3.0805 3.0805-.005.005c-.53.53-.53 1.38 0 1.9s1.38.52 1.9 0l1.9-1.9c.53-.53.53-1.38 0-1.9-.5283-.5283-1.3746-.53-1.8951-.0051l-3.0808-3.0808c1.0344-1.5332 1.4227-3.4212 1.0759-5.2441-.03-.15-.16-.25-.31-.25h-2.12c-.21 0-.36.2-.3.4.0123.0441.024.0883.0349.1326l-1.721-1.7394 9.1327-9.03571c.3814-.36552.5834-.86774.5834-1.37749v-3.11c0-.83228-.6677-1.5-1.5-1.5h-3.11c-.5193 0-1.0125.2083-1.3771.57289l-.004.00399-9.0064 9.10822-9.01163-9.10842-.00376-.00379c-.3646-.36459-.85776-.57289-1.37711-.57289h-3.11c-.83228 0-1.5.66772-1.5 1.5v3.11c0 .51935.2083 1.01251.57289 1.37711zm21.24332 13.42853c-.2125.5301-.5317 1.0214-.9504 1.4402-.0017.0017-.0034.0033-.005.005l-3.2255-3.2255 1.2227-1.2097zm-12.6904 1.4502c-.41776-.4178-.73783-.9092-.95158-1.4392l17.23598-17.4308 2.5856.00005zm-4.54437-18.87 9.01057 9.1073-1.2375 1.2515-10.3587-10.35878z" fill="#212121"/></svg>